<svg xmlns="http://www.w3.org/2000/svg" width="38" height="38" viewBox="0 0 38 38">
  <g id="ic_art" transform="translate(-497 -2775)">
    <rect id="Rectangle_416" data-name="Rectangle 416" width="38" height="38" transform="translate(497 2775)" opacity="0"/>
    <g id="wall-art" transform="translate(502.649 2776.219)">
      <path id="Path_11" data-name="Path 11" d="M212.855,91.937a.94.94,0,0,0,.626-1.012q-.012-9.949,0-19.9a.912.912,0,0,0-.528-.976c-.076-.033-.132-.148-.168-.236a5.666,5.666,0,0,0-2.7-2.922.539.539,0,0,1-.326-.492c-.091-1.009-.21-2.016-.318-3.024a.818.818,0,0,0-.885-.839q-1.966-.017-3.932,0a.8.8,0,0,0-.871.812c-.116,1.041-.217,2.084-.344,3.124a.539.539,0,0,1-.233.359,5.855,5.855,0,0,0-2.792,3.021.592.592,0,0,1-.253.247.772.772,0,0,0-.416.661c0,.08-.006.159-.006.239q0,9.966-.006,19.932a.922.922,0,0,0,.637,1Zm-11.576-1.577V71.586h2.009v.393q0,2.308,0,4.616a2.168,2.168,0,0,0,.048.473.754.754,0,0,0,1.464.014,2.01,2.01,0,0,0,.047-.473c0-.792,0-1.584,0-2.429.083.058.117.084.153.107a.767.767,0,0,0,1.231-.62c.016-.2.007-.41.008-.615,0-.486,0-.973,0-1.467h5.644V90.36Zm.813-20.373c.56-1.415,2.758-2.493,4.813-2.4s3.807,1.36,4.168,2.4Zm3.142-5.877h2.716l.2,1.977h-3.127Z" transform="translate(-199.701 -56.916)" fill="#5280f4" fill-rule="evenodd"/>
      <path id="Path_12" data-name="Path 12" d="M121.663,10.631a5.192,5.192,0,0,0-.527.29.756.756,0,0,0-.251.936.766.766,0,0,0,.872.427c.641-.136,1.021-.648.789-1.135-.1-.211-.356-.347-.541-.518Z" transform="translate(-100.3 -10.631)" fill="#5280f4" fill-rule="evenodd"/>
      <path id="Path_14" data-name="Path 14" d="M109.679,65.59h-3.385a.77.77,0,0,0-.771.463.649.649,0,0,0,.116.791,1.2,1.2,0,0,0,.691.291c2.233.024,4.467.024,6.7.018a.778.778,0,0,0,.871-.8c-.009-.466-.349-.758-.907-.76-1.105,0-2.211,0-3.316,0Z" transform="translate(-89.926 -59.645)" fill="#5280f4" fill-rule="evenodd"/>
      <path id="Path_15" data-name="Path 15" d="M154.644,85.106a.806.806,0,0,0,.838-.508.753.753,0,0,0-.255-.856,1.943,1.943,0,0,0-.35-.209c-1.94-.926-3.878-1.854-5.825-2.766a1.458,1.458,0,0,0-.712-.138.646.646,0,0,0-.568.56.71.71,0,0,0,.285.781,2.262,2.262,0,0,0,.355.2q2.893,1.385,5.788,2.764C154.373,85.017,154.557,85.072,154.644,85.106Z" transform="translate(-136.125 -73.054)" fill="#5280f4" fill-rule="evenodd"/>
      <path id="Path_16" data-name="Path 16" d="M177.621,36.169a.753.753,0,0,0-.964-.721,1.5,1.5,0,0,0-.255.091c-1.108.525-2.221,1.04-3.317,1.59a1.233,1.233,0,0,0-.52.541.657.657,0,0,0,.2.775.745.745,0,0,0,.856.137c.507-.228,1.007-.474,1.509-.713l1.937-.923A.821.821,0,0,0,177.621,36.169Z" transform="translate(-160.899 -32.738)" fill="#5280f4" fill-rule="evenodd"/>
      <path id="Path_17" data-name="Path 17" d="M76.465,67.216a.82.82,0,0,0,.926-.781.8.8,0,0,0-.886-.783c-.561-.009-.928.289-.937.761A.8.8,0,0,0,76.465,67.216Z" transform="translate(-50.182 -59.699)" fill="#5280f4" fill-rule="evenodd"/>
      <path id="Path_18" data-name="Path 18" d="M120.794,120.252a1.041,1.041,0,0,0,1.016.91.786.786,0,0,0,.782-.782,1.058,1.058,0,0,0-1.038-.893A.778.778,0,0,0,120.794,120.252Z" transform="translate(-100.275 -107.711)" fill="#5280f4" fill-rule="evenodd"/>
      <path id="Path_19" data-name="Path 19" d="M149.555,24.315a.771.771,0,0,0-.772-.782,1.018,1.018,0,0,0-.994.891.789.789,0,0,0,.762.769A1.018,1.018,0,0,0,149.555,24.315Z" transform="translate(-130.159 -22.137)" fill="#5280f4" fill-rule="evenodd"/>
      <path id="Path_20" data-name="Path 20" d="M280.907,214.207c-.02-.716-.437-1.123-1.007-.939a.821.821,0,0,0-.439.339,1.283,1.283,0,0,0-.011,1.211.685.685,0,0,0,.737.379.7.7,0,0,0,.644-.523A3.351,3.351,0,0,0,280.907,214.207Z" transform="translate(-275.737 -191.308)" fill="#5280f4" fill-rule="evenodd"/>
    </g>
  </g>
</svg>
