<svg xmlns="http://www.w3.org/2000/svg" width="38" height="38" viewBox="0 0 38 38">
  <g id="ic_cleaning_river" transform="translate(-497 -2683)">
    <rect id="Rectangle_417" data-name="Rectangle 417" width="38" height="38" transform="translate(497 2683)" opacity="0"/>
    <g id="cleaning_river" transform="translate(494.923 2676.922)">
      <path id="Path_21" data-name="Path 21" d="M6.75,223.823a1.2,1.2,0,0,1,1.424-.891,7.467,7.467,0,0,1,3.028.809,7.354,7.354,0,0,0,3.445.813A7.179,7.179,0,0,0,17.6,223.8a7.909,7.909,0,0,1,3.462-.881,7.57,7.57,0,0,1,3.337.812,7.369,7.369,0,0,0,3.472.817,7.229,7.229,0,0,0,2.954-.756,7.81,7.81,0,0,1,3.156-.866,1.2,1.2,0,0,1,1.424.891v.448a1.218,1.218,0,0,1-1.341.9,2.236,2.236,0,0,0-.306.023,6.046,6.046,0,0,0-2.087.679,8.805,8.805,0,0,1-6.044.673,17.985,17.985,0,0,1-2.556-.957,5.1,5.1,0,0,0-2.649-.38,6.489,6.489,0,0,0-1.974.672,9.164,9.164,0,0,1-5.776.739,12.743,12.743,0,0,1-2.8-1.022,4.267,4.267,0,0,0-1.781-.422,1.246,1.246,0,0,1-1.341-.907Q6.75,224.047,6.75,223.823Z" transform="translate(-0.001 -196.339)" fill="#5280f4" stroke="#fff" stroke-width="0.4" fill-rule="evenodd"/>
      <path id="Path_22" data-name="Path 22" d="M6.75,284.317v-.448a1.2,1.2,0,0,1,1.424-.889,7.665,7.665,0,0,1,.806.081,8.858,8.858,0,0,1,2.528.863,6.477,6.477,0,0,0,4.247.543,11.5,11.5,0,0,0,2.174-.774,7.429,7.429,0,0,1,4.415-.608,9.522,9.522,0,0,1,2.389.846,6.867,6.867,0,0,0,4.2.559,8.8,8.8,0,0,0,2.177-.774,7.44,7.44,0,0,1,2.876-.738,1.2,1.2,0,0,1,1.424.891v.448a1.218,1.218,0,0,1-1.341.9,2.238,2.238,0,0,0-.306.023,6.045,6.045,0,0,0-2.087.679,8.8,8.8,0,0,1-6.044.673,17.985,17.985,0,0,1-2.556-.957,5.1,5.1,0,0,0-2.649-.379,6.487,6.487,0,0,0-1.974.672,9.165,9.165,0,0,1-5.776.739,12.749,12.749,0,0,1-2.8-1.022,4.27,4.27,0,0,0-1.781-.422A1.245,1.245,0,0,1,6.75,284.317Z" transform="translate(-0.001 -251.908)" fill="#5280f4" stroke="#fff" stroke-width="0.4" fill-rule="evenodd"/>
      <path id="Path_23" data-name="Path 23" d="M28.465,346.828H26.9c-.291-.047-.583-.093-.874-.141a12.038,12.038,0,0,1-2.906-1.033,4.935,4.935,0,0,0-4.134.016c-.842.361-1.712.665-2.582.954a7.683,7.683,0,0,1-1.145.2H13.689a7.481,7.481,0,0,1-1.144-.2c-.9-.3-1.8-.644-2.683-1a4.6,4.6,0,0,0-1.75-.412,1.257,1.257,0,0,1-1.363-.908v-.448a1.2,1.2,0,0,1,1.424-.889,7.7,7.7,0,0,1,.806.081,8.859,8.859,0,0,1,2.528.863,6.477,6.477,0,0,0,4.247.543,11.5,11.5,0,0,0,2.174-.774,7.429,7.429,0,0,1,4.415-.608,9.523,9.523,0,0,1,2.389.846,6.867,6.867,0,0,0,4.2.559,8.8,8.8,0,0,0,2.177-.774,7.44,7.44,0,0,1,2.876-.738,1.2,1.2,0,0,1,1.424.891v.448a1.261,1.261,0,0,1-1.363.908,4.826,4.826,0,0,0-1.828.444c-.86.342-1.728.669-2.606.962A7.587,7.587,0,0,1,28.465,346.828Z" transform="translate(0 -307.422)" fill="#5280f4" stroke="#fff" stroke-width="0.4" fill-rule="evenodd"/>
      <path id="Path_24" data-name="Path 24" d="M49.354,10.75a1.9,1.9,0,0,1,.838.623,25.917,25.917,0,0,1,2.953,4,5.709,5.709,0,0,1,.792,1.988,4.552,4.552,0,0,1-1.276,3.9,4.862,4.862,0,0,1-8.4-3.342,4.506,4.506,0,0,1,.543-1.948,19.43,19.43,0,0,1,2.524-3.716c.242-.3.5-.579.74-.876a1.792,1.792,0,0,1,.837-.624Zm-.233,2.818c-.415.545-.811,1.04-1.179,1.555-.3.416-.577.847-.837,1.288a5.553,5.553,0,0,0-.459.954,1.934,1.934,0,0,0-.128.788,2.63,2.63,0,0,0,3.892,2.062,2.469,2.469,0,0,0,1.142-3.051A19.137,19.137,0,0,0,49.121,13.568Z" transform="translate(-34.713)" fill="#5280f4" stroke="#fff" stroke-width="0.4" fill-rule="evenodd"/>
      <path id="Path_27" data-name="Path 27" d="M226.85,60.124a4.877,4.877,0,0,1-4.864-4.854,4.483,4.483,0,0,1,.537-1.949,19.2,19.2,0,0,1,2.52-3.715c.319-.389.642-.776.985-1.144a1.076,1.076,0,0,1,1.616-.033,25.057,25.057,0,0,1,3.517,4.819A4.75,4.75,0,0,1,226.85,60.124Zm0-9.209c-.344.442-.672.846-.98,1.264a10.519,10.519,0,0,0-1.5,2.512,1.905,1.905,0,0,0-.132.787,2.513,2.513,0,0,0,1.146,1.955,2.611,2.611,0,0,0,3.189-.194,2.354,2.354,0,0,0,.555-3.022A18.321,18.321,0,0,0,226.85,50.915Z" transform="translate(-199.173 -34.542)" fill="#5280f4" stroke="#fff" stroke-width="0.4" fill-rule="evenodd"/>
    </g>
  </g>
</svg>
