<svg xmlns="http://www.w3.org/2000/svg" width="38" height="38" viewBox="0 0 38 38">
  <g id="ic_fundraising" transform="translate(-1189 -2776)">
    <rect id="Rectangle_422" data-name="Rectangle 422" width="38" height="38" transform="translate(1189 2776)" opacity="0"/>
    <g id="fundraising" transform="translate(1182.018 2766.257)">
      <path id="Path_49" data-name="Path 49" d="M19.211,12.75h.5c.134.076.268.151.4.227Q26.284,16.542,32.46,20.1a1.108,1.108,0,0,0,.525.139c1.947.01,3.893.006,5.84.006.862,0,1.19.326,1.19,1.183q0,11.024.008,22.047a1.207,1.207,0,0,1-.7,1.258H12.589a1.209,1.209,0,0,1-.7-1.258q.02-11.07.009-22.14A.964.964,0,0,1,13,20.247h1.711a6.737,6.737,0,0,1,.3-.7c1.154-2.011,2.319-4.016,3.47-6.029A1.769,1.769,0,0,1,19.211,12.75ZM13.8,22.121V42.846H38.121v-20.7a.669.669,0,0,0-.106-.02c-1.614,0-3.228-.005-4.841.007a.43.43,0,0,0-.295.2c-.644,1.093-1.276,2.194-1.91,3.293-.039.068-.067.144-.114.246.865,0,1.7,0,2.527,0a.938.938,0,1,1,.02,1.872q-7.449,0-14.9-.005a1.165,1.165,0,0,1-.556-.162.887.887,0,0,1-.39-1,.933.933,0,0,1,.952-.7q2.389-.005,4.779,0h.361c-.1-.073-.125-.1-.159-.12q-3.066-1.771-6.134-3.54a.561.561,0,0,0-.26-.085C16.005,22.119,14.913,22.121,13.8,22.121ZM17,19.837l5.163,2.978a2.9,2.9,0,0,1,2.8-4.874L19.81,14.967Zm14.172,1.689-5.153-2.975a2.835,2.835,0,0,1,.585,3.343,2.8,2.8,0,0,1-3.39,1.507c1.3.771,2.595,1.514,3.884,2.271a1.953,1.953,0,0,0,.762.21,1.068,1.068,0,0,0,1.223-.7C29.73,23.951,30.457,22.762,31.169,21.526Zm-6.151-.859a.935.935,0,1,0-.913.95A.935.935,0,0,0,25.018,20.667Z" fill="#5280f4" stroke="#fff" stroke-width="0.3"/>
      <path id="Path_50" data-name="Path 50" d="M118.877,233.848a3.306,3.306,0,0,1,1.545-.91,3.281,3.281,0,0,1,3.589,4.9,7.552,7.552,0,0,1-1.919,2.073c-.838.685-1.691,1.35-2.543,2.017a.952.952,0,0,1-1.355,0c-1.087-.873-2.186-1.732-3.243-2.639a4.655,4.655,0,0,1-1.593-2.336,3.258,3.258,0,0,1,5.317-3.282C118.735,233.726,118.8,233.778,118.877,233.848Zm0,6.31c1.079-.942,2.12-1.831,3.133-2.751a2.208,2.208,0,0,0,.5-.78,1.379,1.379,0,0,0-2.393-1.339,3.25,3.25,0,0,0-.356.653.932.932,0,0,1-1.784,0,3.265,3.265,0,0,0-.435-.749,1.387,1.387,0,0,0-1.729-.307,1.341,1.341,0,0,0-.626,1.582,2.7,2.7,0,0,0,.644,1.044C116.8,238.408,117.82,239.246,118.88,240.158Z" transform="translate(-92.912 -201.755)" fill="#5280f4" stroke="#fff" stroke-width="0.3" fill-rule="evenodd"/>
    </g>
  </g>
</svg>
