<svg xmlns="http://www.w3.org/2000/svg" width="38" height="38" viewBox="0 0 38 38">
  <g id="ic_nwa" transform="translate(-842 -2870)">
    <rect id="Rectangle_420" data-name="Rectangle 420" width="38" height="38" transform="translate(842 2870)" opacity="0"/>
    <g id="newsletter" transform="translate(827.17 2854.914)">
      <path id="Path_28" data-name="Path 28" d="M19,45.589V19H43.446V32.977H48.66v.176q0,6.009,0,12.018a3.489,3.489,0,0,1-3.586,3.488q-11.135,0-22.27,0c-.145,0-.29,0-.434,0a3.457,3.457,0,0,1-2.658-1.377A4,4,0,0,1,19,45.589ZM41.708,20.76H20.738v.281q0,11.99,0,23.98a1.756,1.756,0,0,0,1.893,1.9q9.63,0,19.26,0c.081,0,.162-.009.285-.016a4.629,4.629,0,0,1-.47-2.528q.007-11.614,0-23.227C41.708,21.025,41.708,20.9,41.708,20.76Zm1.738,13.95v.226q0,5.065,0,10.131a2.361,2.361,0,0,0,.026.375A1.729,1.729,0,0,0,45.8,46.8a1.76,1.76,0,0,0,1.118-1.757q0-5.036,0-10.073c0-.084-.009-.168-.014-.262Z" fill="#5280f4"/>
      <path id="Path_29" data-name="Path 29" d="M79.225,86.222V79.247H96.683v6.975Zm1.738-1.738H94.945v-3.5H80.963Z" transform="translate(-56.736 -56.757)" fill="#5280f4" fill-rule="evenodd"/>
      <path id="Path_30" data-name="Path 30" d="M267.348,350.316v5.177h-6.973v-5.177Zm-1.743,3.45v-1.712h-3.492v1.712Z" transform="translate(-227.391 -312.121)" fill="#5280f4" fill-rule="evenodd"/>
      <path id="Path_31" data-name="Path 31" d="M88.117,230.328v1.7h-8.71v-1.7Z" transform="translate(-56.906 -199.084)" fill="#5280f4" fill-rule="evenodd"/>
      <path id="Path_32" data-name="Path 32" d="M88.106,290.311v1.7H79.4v-1.7Z" transform="translate(-56.896 -255.592)" fill="#5280f4" fill-rule="evenodd"/>
      <path id="Path_33" data-name="Path 33" d="M88.113,350.31v1.7H79.4v-1.7Z" transform="translate(-56.903 -312.115)" fill="#5280f4" fill-rule="evenodd"/>
      <path id="Path_34" data-name="Path 34" d="M79.219,411.914v-1.7H87.93v1.7Z" transform="translate(-56.73 -368.546)" fill="#5280f4" fill-rule="evenodd"/>
      <path id="Path_35" data-name="Path 35" d="M260.192,231.941v-1.7h6.973v1.7Z" transform="translate(-227.218 -199.001)" fill="#5280f4" fill-rule="evenodd"/>
      <path id="Path_36" data-name="Path 36" d="M267.192,290.325v1.7h-6.983v-1.7Z" transform="translate(-227.234 -255.605)" fill="#5280f4" fill-rule="evenodd"/>
    </g>
  </g>
</svg>
