<svg xmlns="http://www.w3.org/2000/svg" width="38" height="38" viewBox="0 0 38 38">
  <g id="ic_others" transform="translate(-1189 -2870.5)">
    <rect id="Rectangle_423" data-name="Rectangle 423" width="38" height="38" transform="translate(1189 2870.5)" opacity="0"/>
    <g id="photography" transform="translate(1182.298 2861.512)">
      <g id="Group_440" data-name="Group 440" transform="translate(-0.003 -0.165)">
        <path id="Path_52" data-name="Path 52" d="M94.737,101.739a3,3,0,1,1,3.028,3A3,3,0,0,1,94.737,101.739Zm3.009,2.139a2.143,2.143,0,1,0-2.151-2.141A2.146,2.146,0,0,0,97.746,103.878Z" transform="translate(-81.532 -82.582)" fill="#5280f4" stroke="#5280f4" stroke-width="0.6" fill-rule="evenodd"/>
        <path id="Path_57" data-name="Path 57" d="M94.737,101.739a3,3,0,1,1,3.028,3A3,3,0,0,1,94.737,101.739Zm3.009,2.139a2.143,2.143,0,1,0-2.151-2.141A2.146,2.146,0,0,0,97.746,103.878Z" transform="translate(-81.532 -73.582)" fill="#5280f4" stroke="#5280f4" stroke-width="0.6" fill-rule="evenodd"/>
        <path id="Path_60" data-name="Path 60" d="M94.737,101.739a3,3,0,1,1,3.028,3A3,3,0,0,1,94.737,101.739Zm3.009,2.139a2.143,2.143,0,1,0-2.151-2.141A2.146,2.146,0,0,0,97.746,103.878Z" transform="translate(-81.532 -64.582)" fill="#5280f4" stroke="#5280f4" stroke-width="0.6" fill-rule="evenodd"/>
        <path id="Path_55" data-name="Path 55" d="M94.737,101.739a3,3,0,1,1,3.028,3A3,3,0,0,1,94.737,101.739Zm3.009,2.139a2.143,2.143,0,1,0-2.151-2.141A2.146,2.146,0,0,0,97.746,103.878Z" transform="translate(-72.532 -82.582)" fill="#5280f4" stroke="#5280f4" stroke-width="0.6" fill-rule="evenodd"/>
        <path id="Path_58" data-name="Path 58" d="M94.737,101.739a3,3,0,1,1,3.028,3A3,3,0,0,1,94.737,101.739Zm3.009,2.139a2.143,2.143,0,1,0-2.151-2.141A2.146,2.146,0,0,0,97.746,103.878Z" transform="translate(-72.532 -73.582)" fill="#5280f4" stroke="#5280f4" stroke-width="0.6" fill-rule="evenodd"/>
        <path id="Path_61" data-name="Path 61" d="M94.737,101.739a3,3,0,1,1,3.028,3A3,3,0,0,1,94.737,101.739Zm3.009,2.139a2.143,2.143,0,1,0-2.151-2.141A2.146,2.146,0,0,0,97.746,103.878Z" transform="translate(-72.532 -64.582)" fill="#5280f4" stroke="#5280f4" stroke-width="0.6" fill-rule="evenodd"/>
        <path id="Path_56" data-name="Path 56" d="M94.737,101.739a3,3,0,1,1,3.028,3A3,3,0,0,1,94.737,101.739Zm3.009,2.139a2.143,2.143,0,1,0-2.151-2.141A2.146,2.146,0,0,0,97.746,103.878Z" transform="translate(-63.532 -82.582)" fill="#5280f4" stroke="#5280f4" stroke-width="0.6" fill-rule="evenodd"/>
        <path id="Path_59" data-name="Path 59" d="M94.737,101.739a3,3,0,1,1,3.028,3A3,3,0,0,1,94.737,101.739Zm3.009,2.139a2.143,2.143,0,1,0-2.151-2.141A2.146,2.146,0,0,0,97.746,103.878Z" transform="translate(-63.532 -73.582)" fill="#5280f4" stroke="#5280f4" stroke-width="0.6" fill-rule="evenodd"/>
        <path id="Path_62" data-name="Path 62" d="M94.737,101.739a3,3,0,1,1,3.028,3A3,3,0,0,1,94.737,101.739Zm3.009,2.139a2.143,2.143,0,1,0-2.151-2.141A2.146,2.146,0,0,0,97.746,103.878Z" transform="translate(-63.532 -64.582)" fill="#5280f4" stroke="#5280f4" stroke-width="0.6" fill-rule="evenodd"/>
      </g>
    </g>
  </g>
</svg>
