<svg xmlns="http://www.w3.org/2000/svg" width="38" height="38" viewBox="0 0 38 38">
  <g id="ic_phone_support" transform="translate(-842 -2775)">
    <rect id="Rectangle_419" data-name="Rectangle 419" width="38" height="38" transform="translate(842 2775)" opacity="0"/>
    <path id="phone" d="M27.7,37.512c-.418-.067-.837-.126-1.253-.2a17.954,17.954,0,0,1-4.6-1.634,29.764,29.764,0,0,1-6.661-4.413,30.618,30.618,0,0,1-9-12.864A11.055,11.055,0,0,1,5.5,14.444a4.773,4.773,0,0,1,1.35-3.333Q8.029,9.9,9.233,8.725a3.631,3.631,0,0,1,1.847-.971h.756A4.4,4.4,0,0,1,14.118,9.2c1.149,1.179,2.337,2.32,3.457,3.525a2.711,2.711,0,0,1,.012,3.812c-.711.791-1.484,1.526-2.242,2.274a.369.369,0,0,0-.1.511A17.337,17.337,0,0,0,18.32,23.56a21.21,21.21,0,0,0,4.095,3.458c.407.259.845.469,1.263.712a.239.239,0,0,0,.346-.053q.966-.985,1.95-1.953a3.647,3.647,0,0,1,1.327-.916,2.733,2.733,0,0,1,2.993.686c1.3,1.262,2.577,2.545,3.847,3.836a2.86,2.86,0,0,1,.186,4.205c-.875,1.005-1.837,1.94-2.8,2.858a4.2,4.2,0,0,1-2.464,1.066,1.315,1.315,0,0,0-.193.053Zm.586-1.5a3.188,3.188,0,0,0,2.373-.845q1.3-1.262,2.533-2.6a1.358,1.358,0,0,0-.032-2.05Q31.206,28.51,29.2,26.553a1.3,1.3,0,0,0-1.818-.051,4.518,4.518,0,0,0-.385.353c-.714.711-1.423,1.426-2.139,2.134a1.237,1.237,0,0,1-1.587.253c-.422-.216-.845-.432-1.251-.676a22.681,22.681,0,0,1-5.078-4.259A17.515,17.515,0,0,1,13.747,19.7a1.32,1.32,0,0,1,.342-1.77c.71-.686,1.42-1.374,2.113-2.078a1.457,1.457,0,0,0,.007-2.387l-.02-.021C15,12.249,13.809,11.054,12.61,9.87a2.358,2.358,0,0,0-.65-.476,1.457,1.457,0,0,0-1.724.465c-.726.712-1.463,1.416-2.149,2.164a4.45,4.45,0,0,0-.825,1.244,4.962,4.962,0,0,0-.094,2.972A18.945,18.945,0,0,0,9.3,21.705a31.378,31.378,0,0,0,6.412,8.016,28.662,28.662,0,0,0,8.661,5.427A11.424,11.424,0,0,0,28.288,36.013Z" transform="translate(840.671 2771.111)" fill="#5280f4" fill-rule="evenodd"/>
  </g>
</svg>
