<svg xmlns="http://www.w3.org/2000/svg" width="38" height="38" viewBox="0 0 38 38">
  <g id="ic_photography" transform="translate(-1189 -2870)">
    <rect id="Rectangle_423" data-name="Rectangle 423" width="38" height="38" transform="translate(1189 2870)" opacity="0"/>
    <g id="photography" transform="translate(1182.298 2861.512)">
      <path id="Path_51" data-name="Path 51" d="M25.678,40.3q-5.186,0-10.372,0a4.518,4.518,0,0,1-4.464-3.583,4.806,4.806,0,0,1-.106-1.024q-.011-6.07,0-12.139a4.535,4.535,0,0,1,4.611-4.6c1.434,0,2.868-.006,4.3.005a.378.378,0,0,0,.419-.271c.439-1.056.906-2.1,1.337-3.158a1.23,1.23,0,0,1,1.277-.854q3.018.025,6.036,0a1.194,1.194,0,0,1,1.234.815c.437,1.068.9,2.125,1.34,3.193a.376.376,0,0,0,.417.273c1.434-.012,2.868-.009,4.3-.005a4.535,4.535,0,0,1,4.613,4.6q.008,6.07,0,12.139A4.535,4.535,0,0,1,36.016,40.3Q30.847,40.307,25.678,40.3Zm-.035-2.135H35.882a2.414,2.414,0,0,0,2.605-2.595c0-3.969-.022-7.938.012-11.907a2.5,2.5,0,0,0-2.612-2.6c-1.678.045-3.357.007-5.036.012a1.164,1.164,0,0,1-1.186-.788c-.44-1.067-.9-2.124-1.347-3.19a.373.373,0,0,0-.406-.283c-1.49.014-2.979.011-4.469,0a.355.355,0,0,0-.39.257c-.454,1.073-.936,2.135-1.389,3.208a1.2,1.2,0,0,1-1.237.814c-1.656-.015-3.313-.006-4.969,0a2.408,2.408,0,0,0-2.589,2.575q0,5.953,0,11.907a2.414,2.414,0,0,0,2.6,2.6Z" transform="translate(0 0)" fill="#5280f4" stroke="#fff" stroke-width="0.3" fill-rule="evenodd"/>
      <path id="Path_52" data-name="Path 52" d="M94.737,106.218a7.472,7.472,0,1,1,7.542,7.46A7.48,7.48,0,0,1,94.737,106.218Zm7.495,5.327a5.337,5.337,0,1,0-5.358-5.332A5.344,5.344,0,0,0,102.231,111.544Z" transform="translate(-76.532 -76.582)" fill="#5280f4" stroke="#fff" stroke-width="0.3" fill-rule="evenodd"/>
      <path id="Path_53" data-name="Path 53" d="M253.387,100.843c-.511,0-1.023,0-1.534,0a1.068,1.068,0,1,1,0-2.133q1.55-.007,3.1,0a1.067,1.067,0,1,1,0,2.132C254.432,100.848,253.909,100.843,253.387,100.843Z" transform="translate(-218.646 -76.555)" fill="#5280f4" stroke="#fff" stroke-width="0.3" fill-rule="evenodd"/>
    </g>
  </g>
</svg>
