<svg xmlns="http://www.w3.org/2000/svg" width="38" height="38" viewBox="0 0 38 38">
  <g id="ic_sma" transform="translate(-497 -2869)">
    <rect id="Rectangle_415" data-name="Rectangle 415" width="38" height="38" transform="translate(497 2869)" opacity="0"/>
    <g id="awarness" transform="translate(481.012 2853.025)">
      <path id="Path_7" data-name="Path 7" d="M27.4,39.688l-1.243,4.972c-.069.276-.135.553-.208.828a.836.836,0,0,1-.905.713q-1.283.006-2.566,0a.829.829,0,0,1-.906-.92q-.005-2.618,0-5.236v-.414H20.366a2.474,2.474,0,0,1-2.627-2.641q0-2.036,0-4.072a2.467,2.467,0,0,1,2.6-2.6c1.688,0,3.378-.045,5.064.012a13.915,13.915,0,0,0,4.869-.757A28.276,28.276,0,0,0,39.5,24.7c.423-.346.806-.74,1.219-1.1a.865.865,0,0,0,.308-.708A2.176,2.176,0,0,1,44.233,21a2.137,2.137,0,0,1,1.157,1.82c.007.091,0,.182,0,.274q0,11.891,0,23.783a2.2,2.2,0,0,1-2.161,2.337,2.173,2.173,0,0,1-2.21-2.141.956.956,0,0,0-.32-.738,23.866,23.866,0,0,0-6.855-4.561,25.548,25.548,0,0,0-6.108-2.038C27.641,39.716,27.541,39.706,27.4,39.688Zm.207-1.644a27.394,27.394,0,0,1,7.063,2.3,26.738,26.738,0,0,1,6.316,4.012V25.626A30.337,30.337,0,0,1,27.61,31.939Zm15.047-3.068q0,5.887,0,11.774a1.933,1.933,0,0,0,.009.341.543.543,0,0,0,1.077,0,1.689,1.689,0,0,0,.009-.307q0-11.808,0-23.616a1.68,1.68,0,0,0-.009-.307.543.543,0,0,0-1.077,0,1.96,1.96,0,0,0-.009.341Q42.657,29.089,42.657,34.976Zm-19.417-3V37.96h2.7V31.979Zm-1.692,6.006V31.965c-.467,0-.911-.011-1.353,0a.8.8,0,0,0-.807.8q-.016,2.2,0,4.409a.788.788,0,0,0,.777.8C20.619,38,21.073,37.985,21.548,37.985Zm1.692,1.661v4.9H24.5l1.223-4.9Z" fill="#5280f4" fill-rule="evenodd"/>
      <path id="Path_8" data-name="Path 8" d="M336.981,90.567a.774.774,0,0,1-.453.745c-.827.406-1.655.809-2.492,1.193a.8.8,0,0,1-1.072-.386.79.79,0,0,1,.363-1.077c.834-.418,1.672-.828,2.522-1.21A.8.8,0,0,1,336.981,90.567Z" transform="translate(-286.372 -62.721)" fill="#5280f4" fill-rule="evenodd"/>
      <path id="Path_9" data-name="Path 9" d="M337.127,234.646a.877.877,0,0,1-1.151.835c-.895-.39-1.773-.819-2.642-1.264a.773.773,0,0,1-.292-1.043.782.782,0,0,1,1.009-.4c.879.4,1.753.811,2.6,1.264C336.861,234.15,336.972,234.439,337.127,234.646Z" transform="translate(-286.439 -192.625)" fill="#5280f4" fill-rule="evenodd"/>
      <path id="Path_10" data-name="Path 10" d="M349.917,169.34c-.432,0-.865.005-1.3,0a.822.822,0,1,1,0-1.639q1.315-.01,2.629,0a.82.82,0,1,1,0,1.638C350.8,169.346,350.36,169.34,349.917,169.34Z" transform="translate(-299.873 -133.543)" fill="#5280f4" fill-rule="evenodd"/>
    </g>
  </g>
</svg>
