<svg xmlns="http://www.w3.org/2000/svg" width="38.166" height="38" viewBox="0 0 38.166 38">
  <g id="ic_tree_plantation" transform="translate(-841.844 -2669)">
    <rect id="Rectangle_508" data-name="Rectangle 508" width="38" height="38" transform="translate(842 2669)" fill="none"/>
    <g id="farming-and-gardening" transform="translate(816.587 2618.958)">
      <path id="Path_81" data-name="Path 81" d="M31.987,81.14a4.729,4.729,0,0,1,4.306-3.2V72.093c-.723.068-1.445.161-2.169.2a8.1,8.1,0,0,1-4.05-.737,6.836,6.836,0,0,1-3.357-4.1,12.482,12.482,0,0,1-.688-3.359A.762.762,0,0,1,26.6,63.2a11.206,11.206,0,0,1,6.159-.177,5.848,5.848,0,0,1,3.267,2.312c.068.1.141.19.258.346v-5c-.683,0-1.364.055-2.033-.01a5.344,5.344,0,0,1-5.194-4.829,16.684,16.684,0,0,1-.172-2.229.755.755,0,0,1,.722-.853,9.236,9.236,0,0,1,4.546.279,4.713,4.713,0,0,1,1.94,1.229,1.639,1.639,0,0,0,.146.131c.007.006.024,0,.08-.008,0-.709,0-1.424,0-2.138a3.924,3.924,0,0,1,.01-.44.763.763,0,0,1,1.522.091c.015.681,0,1.362.005,2.042,0,.128,0,.256,0,.492A4.97,4.97,0,0,1,40.078,53a9.318,9.318,0,0,1,4.472-.225.738.738,0,0,1,.68.765,8.763,8.763,0,0,1-.744,4.135,5.123,5.123,0,0,1-4.424,2.981,20.192,20.192,0,0,1-2.178.012v4.991c.09-.109.163-.187.223-.273a6.3,6.3,0,0,1,4.733-2.643,12.482,12.482,0,0,1,4.558.4c.6.157.772.4.732,1.006a11.756,11.756,0,0,1-1.066,4.242,6.352,6.352,0,0,1-5.8,3.87c-1.111.058-2.231-.066-3.409-.109v.315c0,1.776.01,3.551-.009,5.326,0,.334.1.5.454.525a6.267,6.267,0,0,1,10.108-3.145c.143-.756.283-1.47.412-2.186A2.081,2.081,0,0,1,51.478,71.2c.874.171,1.75.328,2.666.5l3.045-15.789c-.414-.076-.78-.14-1.144-.211A1.489,1.489,0,0,1,54.81,53.9c.092-.525.18-1.051.281-1.575a1.491,1.491,0,0,1,1.82-1.256c1.273.226,2.545.462,3.816.7a1.432,1.432,0,0,1,1.243,1.636,15.738,15.738,0,0,1-.347,1.927A1.473,1.473,0,0,1,59.886,56.4c-.38-.065-.758-.139-1.173-.215l-3.047,15.8,2.419.46c.2.038.4.068.587.122a2.012,2.012,0,0,1,1.472,2.3c-.323,1.825-.675,3.644-1.013,5.466-.023.126-.038.254-.059.4a4.582,4.582,0,0,1,3.153,1.694,4.483,4.483,0,0,1,.8,4.369c-.215.685-.388.8-1.1.8H26.76c-.71,0-.886-.109-1.1-.8A4.617,4.617,0,0,1,31.55,80.98C31.689,81.024,31.824,81.08,31.987,81.14Zm29.656,4.9a5.064,5.064,0,0,0,.074-.585A3.064,3.064,0,0,0,56.809,82.9c-.811.579-1.376.331-1.477-.638a2.912,2.912,0,0,0-1.845-2.513,2.881,2.881,0,0,0-3.054.4c-.3.231-.6.414-.983.23a.888.888,0,0,1-.467-.86,4.659,4.659,0,0,0-9.288,0,.887.887,0,0,1-.48.855.834.834,0,0,1-.948-.219A2.827,2.827,0,0,0,36.5,79.5a3.042,3.042,0,0,0-3.147,2.827c-.048.553-.3.9-.733.879a1.41,1.41,0,0,1-.71-.3,3.057,3.057,0,0,0-4.24.479,2.914,2.914,0,0,0-.613,2.653Zm-4.924-4.914c.422-.116.764-.22.855-.793.29-1.815.662-3.617,1-5.424.117-.618,0-.8-.609-.917q-3.417-.648-6.836-1.287c-.488-.091-.69.052-.783.547q-.3,1.611-.6,3.223a.6.6,0,0,0-.011.311c.218.52.453,1.033.683,1.548A4.693,4.693,0,0,1,56.719,81.126Zm-21.6-10.47c-.163-.124-.263-.206-.368-.279q-1.546-1.071-3.093-2.14c-.488-.338-.617-.795-.343-1.185s.731-.422,1.233-.078q1.138.781,2.272,1.569l1.259.868a8.644,8.644,0,0,0-1.21-3.039,4.443,4.443,0,0,0-2.834-1.935,7.211,7.211,0,0,0-1.662-.2c-.911.021-1.819.139-2.751.218a9.61,9.61,0,0,0,1.236,3.929,4.639,4.639,0,0,0,3.221,2.226A9.257,9.257,0,0,0,35.12,70.655Zm3.02-1.241c.139-.087.262-.162.382-.241q1.686-1.112,3.371-2.225c.5-.327.967-.272,1.227.133a.808.808,0,0,1-.363,1.149Q41.141,69.3,39.521,70.37c-.117.077-.228.164-.43.31,1.926.167,3.725.172,5.208-1.108,1.517-1.309,1.973-3.125,2.248-5.036a11.26,11.26,0,0,0-3.3-.278A5.431,5.431,0,0,0,38.14,69.415Zm-2-11.42a4.395,4.395,0,0,0-1.518-2.971,6,6,0,0,0-4.163-.824c-.217,2.933,2.121,5.437,4.587,4.906-.662-.554-1.3-1.088-1.942-1.625-.575-.482-.687-.916-.342-1.311s.78-.337,1.329.121C34.739,56.835,35.393,57.377,36.136,57.994Zm1.894-.07c.046,0,.064.006.071,0,.694-.584,1.385-1.173,2.082-1.754a.783.783,0,1,1,1,1.185c-.587.5-1.18,1-1.77,1.5-.092.078-.178.163-.311.285a4.3,4.3,0,0,0,4.546-5c-.758.04-1.532.023-2.29.131A3.786,3.786,0,0,0,38.029,57.924Zm22.408-4.634L56.62,52.6l-.286,1.579,3.812.688Z" fill="#5280f4" stroke="#fff" stroke-width="0.3" fill-rule="evenodd"/>
      <path id="Path_82" data-name="Path 82" d="M184.859,311.247a.79.79,0,0,1,.809.807.8.8,0,0,1-.818.8.83.83,0,0,1-.8-.795A.808.808,0,0,1,184.859,311.247Z" transform="translate(-141.693 -232.41)" fill="#5280f4" fill-rule="evenodd"/>
      <path id="Path_83" data-name="Path 83" d="M246.865,352.984a.81.81,0,0,1-.007-1.619.843.843,0,0,1,.809.787A.834.834,0,0,1,246.865,352.984Z" transform="translate(-197.076 -268.242)" fill="#5280f4" fill-rule="evenodd"/>
      <path id="Path_84" data-name="Path 84" d="M168.462,335.752a.841.841,0,0,1,.826.811.811.811,0,1,1-1.622-.01A.843.843,0,0,1,168.462,335.752Z" transform="translate(-127.057 -254.297)" fill="#5280f4" fill-rule="evenodd"/>
      <path id="Path_85" data-name="Path 85" d="M115.509,333.9a.842.842,0,0,1-.841.8.8.8,0,0,1,.057-1.607A.844.844,0,0,1,115.509,333.9Z" transform="translate(-79.031 -251.921)" fill="#5280f4" fill-rule="evenodd"/>
      <path id="Path_86" data-name="Path 86" d="M330.458,355.892a.811.811,0,1,1-.81.791A.851.851,0,0,1,330.458,355.892Z" transform="translate(-271.736 -272.286)" fill="#5280f4" fill-rule="evenodd"/>
      <path id="Path_87" data-name="Path 87" d="M139.849,347.287a.822.822,0,0,1-.808.822.855.855,0,0,1-.8-.8.836.836,0,0,1,.819-.814A.805.805,0,0,1,139.849,347.287Z" transform="translate(-100.773 -263.896)" fill="#5280f4" fill-rule="evenodd"/>
      <path id="Path_88" data-name="Path 88" d="M275.494,333.521a.835.835,0,0,1-.8.792.81.81,0,0,1,0-1.619A.826.826,0,0,1,275.494,333.521Z" transform="translate(-221.929 -251.566)" fill="#5280f4" fill-rule="evenodd"/>
      <path id="Path_89" data-name="Path 89" d="M195.89,351.076a.8.8,0,1,1-.793.793A.824.824,0,0,1,195.89,351.076Z" transform="translate(-151.558 -267.985)" fill="#5280f4" fill-rule="evenodd"/>
      <path id="Path_90" data-name="Path 90" d="M216.269,330.381a.818.818,0,0,1-.809.818.838.838,0,0,1-.8-.793.85.85,0,0,1,.816-.824A.837.837,0,0,1,216.269,330.381Z" transform="translate(-169.031 -248.786)" fill="#5280f4" fill-rule="evenodd"/>
      <path id="Path_91" data-name="Path 91" d="M61.867,355.3a.841.841,0,0,1-.789.806.862.862,0,0,1-.826-.819.848.848,0,0,1,.838-.8A.825.825,0,0,1,61.867,355.3Z" transform="translate(-31.118 -271.029)" fill="#5280f4" fill-rule="evenodd"/>
      <path id="Path_92" data-name="Path 92" d="M102.815,356.814a.835.835,0,0,1-.781-.851.826.826,0,0,1,.821-.768.838.838,0,0,1,.787.848A.851.851,0,0,1,102.815,356.814Z" transform="translate(-68.436 -271.663)" fill="#5280f4" fill-rule="evenodd"/>
      <path id="Path_93" data-name="Path 93" d="M291.956,355.644a.8.8,0,0,1-1.608.03.8.8,0,1,1,1.608-.03Z" transform="translate(-236.634 -271.359)" fill="#5280f4" fill-rule="evenodd"/>
      <path id="Path_94" data-name="Path 94" d="M210.9,295.617a.828.828,0,0,1,.813.776.8.8,0,1,1-1.608.021A.833.833,0,0,1,210.9,295.617Z" transform="translate(-164.963 -218.45)" fill="#5280f4" fill-rule="evenodd"/>
    </g>
  </g>
</svg>
