<svg xmlns="http://www.w3.org/2000/svg" width="38" height="38" viewBox="0 0 38 38">
  <g id="ic_video" transform="translate(-842 -2870)">
    <rect id="Rectangle_420" data-name="Rectangle 420" width="38" height="38" transform="translate(842 2870)" opacity="0"/>
    <g id="Group_523" data-name="Group 523" transform="translate(617.434 2169.35)">
      <g id="Path_74" data-name="Path 74" transform="translate(229 715.776)" fill="none">
        <path d="M3.682,0h17.7a1.944,1.944,0,0,1,1.944,1.944V14.58a1.944,1.944,0,0,1-1.944,1.944H1.944A1.944,1.944,0,0,1,0,14.58L.207,3.4Z" stroke="none"/>
        <path d="M 4.293369293212891 1.499997138977051 L 1.695283889770508 4.040252685546875 L 1.500089645385742 14.58849906921387 C 1.504846572875977 14.82919883728027 1.702125549316406 15.02353763580322 1.943941116333008 15.02353763580322 L 21.38340187072754 15.02353763580322 C 21.6281909942627 15.02353763580322 21.82734107971191 14.82437705993652 21.82734107971191 14.57958698272705 L 21.82734107971191 1.943947792053223 C 21.82734107971191 1.69915771484375 21.6281909942627 1.499997138977051 21.38340187072754 1.499997138977051 L 4.293369293212891 1.499997138977051 M 3.681911468505859 -1.9073486328125e-06 L 21.38340187072754 -1.9073486328125e-06 C 22.45701217651367 -1.9073486328125e-06 23.32734107971191 0.8703374862670898 23.32734107971191 1.943947792053223 L 23.32734107971191 14.57958698272705 C 23.32734107971191 15.65319728851318 22.45701217651367 16.52353668212891 21.38340187072754 16.52353668212891 L 1.943941116333008 16.52353668212891 C 0.870330810546875 16.52353668212891 1.9073486328125e-06 15.65319728851318 1.9073486328125e-06 14.57958698272705 L 0.2069206237792969 3.397637367248535 L 3.681911468505859 -1.9073486328125e-06 Z" stroke="none" fill="#5280f4"/>
      </g>
      <g id="Path_75" data-name="Path 75" transform="translate(250.369 719.664)" fill="none">
        <path d="M.5,0H4.386V8.748H.5Z" stroke="none"/>
        <path d="M 2.000977993011475 1.499997138977051 L 2.000977993011475 7.247756958007812 L 2.886017799377441 7.247756958007812 L 2.886017799377441 1.499997138977051 L 2.000977993011475 1.499997138977051 M 0.5009779930114746 -2.86102294921875e-06 L 4.386017799377441 -2.86102294921875e-06 L 4.386017799377441 8.747756958007812 L 0.5009779930114746 8.747756958007812 L 0.5009779930114746 -2.86102294921875e-06 Z" stroke="none" fill="#5280f4"/>
      </g>
      <g id="Path_76" data-name="Path 76" transform="translate(239.649 719.924)" fill="none">
        <path d="M.5,0H9.038V5.169H.5Z" stroke="none"/>
        <path d="M 2.000973224639893 1.500004053115845 L 2.000973224639893 3.668584108352661 L 7.538013458251953 3.668584108352661 L 7.538013458251953 1.500004053115845 L 2.000973224639893 1.500004053115845 M 0.5009727478027344 4.291534423828125e-06 L 9.038013458251953 4.291534423828125e-06 L 9.038013458251953 5.168583869934082 L 0.5009727478027344 5.168583869934082 L 0.5009727478027344 4.291534423828125e-06 Z" stroke="none" fill="#5280f4"/>
      </g>
      <g id="Path_77" data-name="Path 77" transform="translate(253.299 715.762)" fill="none">
        <path d="M.974,2.258,4.862.488a.932.932,0,0,1,.972.885V14.648a.932.932,0,0,1-.972.885L.974,13.763A1.15,1.15,0,0,1,0,12.639V3.584C0,3.1.437,2.258.974,2.258Z" stroke="none"/>
        <path d="M 4.33379077911377 2.37684440612793 L 1.501951217651367 3.665998458862305 L 1.501951217651367 12.35492515563965 L 4.33379077911377 13.64407920837402 L 4.33379077911377 2.37684440612793 M 4.861821174621582 0.4883518218994141 C 5.398621082305908 0.4883518218994141 5.83379077911377 0.8845615386962891 5.83379077911377 1.373311996459961 L 5.83379077911377 14.64762210845947 C 5.83379077911377 15.13636207580566 5.398621082305908 15.53257179260254 4.861821174621582 15.53257179260254 L 0.9739208221435547 13.76266193389893 C 0.4371209144592285 13.76266193389893 0.001951217651367188 13.12728214263916 0.001951217651367188 12.63854217529297 L 0.001951217651367188 3.584181785583496 C 0.001951217651367188 3.095432281494141 0.4371209144592285 2.258261680603027 0.9739208221435547 2.258261680603027 L 4.861821174621582 0.4883518218994141 Z" stroke="none" fill="#5280f4"/>
      </g>
      <g id="Ellipse_15" data-name="Ellipse 15" transform="translate(232.566 707.65)" fill="none" stroke="#5280f4" stroke-width="1.5">
        <circle cx="4.5" cy="4.5" r="4.5" stroke="none"/>
        <circle cx="4.5" cy="4.5" r="3.75" fill="none"/>
      </g>
      <g id="Ellipse_16" data-name="Ellipse 16" transform="translate(240.566 707.65)" fill="none" stroke="#5280f4" stroke-width="1.5">
        <circle cx="4.5" cy="4.5" r="4.5" stroke="none"/>
        <circle cx="4.5" cy="4.5" r="3.75" fill="none"/>
      </g>
    </g>
  </g>
</svg>
