<svg xmlns="http://www.w3.org/2000/svg" width="38" height="38" viewBox="0 0 38 38">
  <g id="ic_watering_plants" transform="translate(-1189 -2683)">
    <rect id="Rectangle_421" data-name="Rectangle 421" width="38" height="38" transform="translate(1189 2683)" opacity="0"/>
    <g id="watering-plants" transform="translate(1176.811 2669.373)">
      <path id="Path_37" data-name="Path 37" d="M130.487,30.663a2.849,2.849,0,0,1-1.635,1.928c-.738.384-1.445.827-2.168,1.239a.666.666,0,0,1-.979-.165c-.206-.345-.075-.7.354-.951q1.233-.714,2.469-1.424a1.055,1.055,0,0,0,.358-1.753q-3.466-4.51-6.935-9.018c-.051-.066-.108-.128-.183-.215l-9.472,5.467c.027.087.046.167.077.242q2.178,5.281,4.359,10.561a1.046,1.046,0,0,0,1.651.57c.788-.45,1.572-.906,2.358-1.359.074-.043.147-.088.224-.124a.636.636,0,0,1,.839.236.6.6,0,0,1-.187.846c-.991.587-1.969,1.209-3.005,1.707a2.241,2.241,0,0,1-3.012-1.273c-.689-1.631-1.384-3.261-2.019-4.913a2.112,2.112,0,0,0-1.222-1.3c-1.428-.62-2.819-1.325-4.232-1.982a.74.74,0,0,0-.444-.024c-.238.054-.46.171-.7.231a1.246,1.246,0,0,1-1.541-1.478c.27-1.12.565-2.235.894-3.338a1.253,1.253,0,0,1,2.159-.454.4.4,0,0,1,.062.073c.426.794,1.205.932,2.027,1.08-.094-.237-.178-.45-.263-.662a2.3,2.3,0,0,1,1.006-2.981q3.585-2.085,7.182-4.148a2.259,2.259,0,0,1,2.685.243.275.275,0,0,0,.386.038,5.357,5.357,0,0,1,2.157-.761.661.661,0,0,0,.145-.055H125.1a1.488,1.488,0,0,0,.21.06,5.7,5.7,0,0,1,4.258,8.279,17.164,17.164,0,0,1-1.181,1.7c.344.448.723.949,1.111,1.444a4.323,4.323,0,0,1,.989,1.729Zm-2.959-4.994a4.4,4.4,0,0,0-5.343-6.947Zm-15.742-1.085,9.195-5.309c-.123-.165-.227-.31-.336-.452a1.08,1.08,0,0,0-1.657-.339l-3.02,1.744Q114,21.366,112.036,22.5a1.048,1.048,0,0,0-.5,1.486C111.611,24.178,111.692,24.363,111.786,24.585Zm-5.065,3.35a6.34,6.34,0,0,0,.685-.247,1.14,1.14,0,0,1,1.094.037c1.215.6,2.442,1.168,3.665,1.748.076.036.158.062.292.114-.409-.992-.785-1.92-1.179-2.84a.469.469,0,0,0-.285-.205c-.728-.2-1.466-.377-2.189-.6a1.591,1.591,0,0,1-.6-.386,9.729,9.729,0,0,1-.658-.772c-.273,1.016-.528,1.962-.782,2.909C106.751,27.755,106.744,27.816,106.721,27.935Z" transform="translate(-82.907 0)" fill="#5280f4" fill-rule="evenodd"/>
      <path id="Path_38" data-name="Path 38" d="M14.75,243.653a.77.77,0,0,1,.824-.47c.5.023,1,0,1.505.015a3.711,3.711,0,0,1,2.24.9,4.963,4.963,0,0,1,0-.709,2.073,2.073,0,0,0-.789-1.969,3.57,3.57,0,0,1-.754-4.339,7.1,7.1,0,0,1,.95-1.234,9.965,9.965,0,0,1,.768-.772.61.61,0,0,1,.915-.017,17.707,17.707,0,0,1,1.277,1.3,3.7,3.7,0,0,1-.069,4.844c-.275.312-.583.594-.868.9a.472.472,0,0,0-.144.266c-.013.552-.007,1.1-.007,1.655.046,0,.074.016.085.007a3.971,3.971,0,0,1,2.782-.845c.362.018.726,0,1.089.009a.572.572,0,0,1,.6.546,7.282,7.282,0,0,1-.178,2.731,3.659,3.659,0,0,1-2.937,2.511,1.507,1.507,0,0,0-.181.057H18.02a.832.832,0,0,0-.143-.058,3.7,3.7,0,0,1-3.029-2.849q-.049-.182-.1-.363Q14.75,244.711,14.75,243.653Zm5.217-2.623a2.644,2.644,0,0,0-.016-4.577C18.081,237.938,18.35,239.807,19.967,241.03Zm.671,6.7a2.638,2.638,0,0,0,3.223-3.223A2.642,2.642,0,0,0,20.638,247.726Zm-1.341,0c.3-2.441-1.332-3.538-3.238-3.218C15.793,246.7,17.073,247.979,19.3,247.731Z" transform="translate(0 -199.46)" fill="#5280f4" fill-rule="evenodd"/>
      <path id="Path_41" data-name="Path 41" d="M52.246,164.051c0-.447.139-.685.461-.78a.6.6,0,0,1,.7.246,1.12,1.12,0,0,1-.018,1.093.607.607,0,0,1-.714.212C52.377,164.722,52.246,164.481,52.246,164.051Z" transform="translate(-34.29 -133.965)" fill="#5280f4" fill-rule="evenodd"/>
      <path id="Path_42" data-name="Path 42" d="M23.33,163.779a1.7,1.7,0,0,1-.178.527.8.8,0,0,1-.448.257.523.523,0,0,1-.608-.311,1.063,1.063,0,0,1,.029-1.012.583.583,0,0,1,.636-.271C23.11,163.027,23.287,163.3,23.33,163.779Z" transform="translate(-6.614 -133.707)" fill="#5280f4" fill-rule="evenodd"/>
      <path id="Path_43" data-name="Path 43" d="M32.956,123l-.086-.02a.631.631,0,0,1-.495-.593,1.2,1.2,0,0,1,.636-.9.65.65,0,0,1,.74.232.636.636,0,0,1-.065.822C33.421,122.894,33.217,123.023,32.956,123Z" transform="translate(-16.118 -95.754)" fill="#5280f4" fill-rule="evenodd"/>
      <path id="Path_44" data-name="Path 44" d="M53.528,208.4a.646.646,0,1,1-1.282-.019.644.644,0,1,1,1.282.019Z" transform="translate(-34.29 -174.606)" fill="#5280f4" fill-rule="evenodd"/>
      <path id="Path_45" data-name="Path 45" d="M23.533,208.379a.646.646,0,1,1-1.282.013.644.644,0,1,1,1.282-.013Z" transform="translate(-6.86 -174.604)" fill="#5280f4" fill-rule="evenodd"/>
      <path id="Path_46" data-name="Path 46" d="M71.446,104.49a.65.65,0,0,1,.7.636.664.664,0,0,1-.754.647.636.636,0,0,1-.678-.651A.65.65,0,0,1,71.446,104.49Z" transform="translate(-51.178 -80.239)" fill="#5280f4" fill-rule="evenodd"/>
      <path id="Path_47" data-name="Path 47" d="M74.751,135.775a.647.647,0,0,1-.713-.643.664.664,0,0,1,.724-.64.643.643,0,0,1,.71.645A.651.651,0,0,1,74.751,135.775Z" transform="translate(-54.218 -107.676)" fill="#5280f4" fill-rule="evenodd"/>
      <path id="Path_48" data-name="Path 48" d="M313.129,221.425a.633.633,0,0,1-.635-.629.639.639,0,1,1,1.278.009A.632.632,0,0,1,313.129,221.425Z" transform="translate(-272.285 -186.009)" fill="#5280f4" fill-rule="evenodd"/>
    </g>
  </g>
</svg>
