<svg xmlns="http://www.w3.org/2000/svg" width="41" height="41" viewBox="0 0 41 41">
  <g id="ic_youtube" transform="translate(0.226)" opacity="0.68">
    <rect id="Rectangle" width="41" height="41" transform="translate(-0.226)" fill="#fff" opacity="0"/>
    <path id="Shape" d="M22.382,37.378h0c-4.207,0-8.786-.132-13.611-.39a5.735,5.735,0,0,1-5.376-5.307,70.355,70.355,0,0,1,0-14.886,5.768,5.768,0,0,1,5.37-5.3,207.968,207.968,0,0,1,25.46,0,5.709,5.709,0,0,1,5.372,5.3,70.518,70.518,0,0,1,0,14.887,5.716,5.716,0,0,1-5.365,5.307C30.575,37.246,26.588,37.378,22.382,37.378ZM21.4,12.511c-4.193,0-8.414.131-12.545.389a4.32,4.32,0,0,0-4.045,4.045,68.972,68.972,0,0,0,0,14.59,4.291,4.291,0,0,0,4.04,4.045c4.8.257,9.353.388,13.533.388s8.126-.131,11.749-.387a4.337,4.337,0,0,0,4.052-4.043,68.991,68.991,0,0,0,0-14.59A4.33,4.33,0,0,0,34.138,12.9C29.878,12.641,25.591,12.511,21.4,12.511Zm-3.521,6.732v9.682l9.364-4.808Z" transform="translate(-1.016 -3.76)" fill="#fff"/>
  </g>
</svg>
